<svg width="63" height="24" viewBox="0 0 63 24" fill="none" xmlns="http://www.w3.org/2000/svg">
<g clip-path="url(#clip0_2040_1150)">
<path d="M49.4935 11.1576C49.4935 11.342 49.4894 11.5265 49.4894 11.7098V23.4677H45.0781V3.37433C45.1314 3.37433 45.1848 3.36815 45.2381 3.36815C46.4132 3.36815 47.5955 3.36815 48.7736 3.36815C48.8731 3.3599 48.9695 3.40523 49.0279 3.48662C52.1287 7.36952 55.2305 11.2504 58.3354 15.1312C58.3662 15.1693 58.399 15.2054 58.4615 15.2765V3.37845H62.8728V23.4791H62.723C61.6669 23.4791 60.6097 23.4791 59.5525 23.4791C59.4603 23.4863 59.37 23.444 59.3167 23.3678C56.9768 20.4409 54.6358 17.5151 52.2948 14.5903C51.375 13.4406 50.4532 12.2909 49.5283 11.1432L49.4945 11.1123L49.4935 11.1576Z" fill="#E90117"/>
<path d="M32.3715 23.9867C29.969 23.9167 27.4732 22.9122 25.448 20.8394C23.4054 18.746 22.3811 16.2075 22.4231 13.2652C22.4641 10.4136 23.5131 7.96783 25.5065 5.95581C27.3019 4.14468 29.4809 3.11549 32.0146 2.9249C35.2856 2.68074 38.1024 3.74084 40.391 6.11034C42.3598 8.14503 43.3329 10.6248 43.3288 13.461C43.3196 19.2312 38.7012 23.9589 32.3715 23.9867ZM38.895 13.9122C38.895 11.7436 38.3023 10.3157 37.1457 9.13816C35.9901 7.96062 34.5494 7.35897 32.8985 7.34558C31.2487 7.33321 29.807 7.92868 28.639 9.10828C27.2712 10.4888 26.6682 12.1783 26.8774 14.1213C27.0117 15.4658 27.6075 16.7206 28.5611 17.6694C29.9105 19.0344 31.547 19.666 33.4594 19.4908C36.3295 19.2271 38.9411 16.7268 38.895 13.9122Z" fill="#E90117"/>
<path d="M24.0634 23.4824H23.8829C22.3879 23.4824 20.8939 23.4824 19.3999 23.4824C19.3035 23.4968 19.2102 23.4381 19.1825 23.3433C18.0074 20.4855 16.8282 17.6287 15.647 14.774C15.3445 14.0456 15.0338 13.3183 14.7292 12.5878C14.4473 11.913 14.1684 11.2393 13.8905 10.5645C13.3142 9.15618 12.7369 7.74684 12.1617 6.3375C12.1422 6.2932 12.1176 6.25096 12.0807 6.18091C10.8215 9.2386 9.57256 12.2613 8.31338 15.3087H8.51436C10.0822 15.3087 11.649 15.3087 13.2127 15.3087C13.3163 15.2932 13.4137 15.3581 13.4414 15.4601C13.991 16.7355 14.5447 18.0089 15.1015 19.2822C15.123 19.3317 15.1415 19.3832 15.1712 19.4584H14.96C12.2396 19.4584 9.51719 19.4573 6.79273 19.4543C6.63276 19.4543 6.57534 19.513 6.521 19.6438C6.01548 20.878 5.50483 22.1091 4.99932 23.3413C4.9624 23.4309 4.93062 23.4855 4.8168 23.4855C3.27871 23.4804 1.7396 23.4804 0.201514 23.4855C0.185108 23.4855 0.168701 23.4855 0.132812 23.4793C0.145117 23.4319 0.161523 23.3856 0.178955 23.3392C1.75806 19.6696 3.33716 15.9999 4.91729 12.3303C6.6584 8.28461 8.39849 4.23585 10.1375 0.185027C10.1939 0.0541889 10.2565 0.00679867 10.4021 0.0078289C11.53 0.0150404 12.66 0.0150404 13.791 0.0078289C13.9387 0.0078289 13.9981 0.0593399 14.0545 0.188117C15.6429 3.8897 17.2343 7.59128 18.8277 11.2908C20.5483 15.2911 22.27 19.2935 23.9906 23.297C24.0101 23.3516 24.0326 23.4072 24.0634 23.4824Z" fill="#E90117"/>
<path d="M49.4922 11.1625L49.4963 11.1172L49.5301 11.1481L49.4922 11.1625Z" fill="#E90117"/>
</g>
<defs>
<clipPath id="clip0_2040_1150">
<rect width="63" height="24" fill="white"/>
</clipPath>
</defs>
</svg>
