<svg width="42" height="16" viewBox="0 0 42 16" fill="none" xmlns="http://www.w3.org/2000/svg">
<g clip-path="url(#clip0_2040_1143)">
<path d="M32.9904 7.44363C32.9904 7.56657 32.9877 7.68951 32.9877 7.81177V15.6504H30.0469V2.25476C30.0824 2.25476 30.118 2.25064 30.1535 2.25064C30.9369 2.25064 31.7251 2.25064 32.5105 2.25064C32.5769 2.24514 32.6411 2.27536 32.6801 2.32962C34.7473 4.91822 36.8151 7.50545 38.8851 10.0927C38.9056 10.1181 38.9274 10.1421 38.9691 10.1895V2.25751H41.91V15.6579H41.8102C41.1061 15.6579 40.4013 15.6579 39.6965 15.6579C39.635 15.6627 39.5748 15.6346 39.5393 15.5837C37.9793 13.6325 36.4187 11.682 34.858 9.7321C34.2448 8.96561 33.6303 8.19913 33.0137 7.43402L32.9911 7.41341L32.9904 7.44363Z" fill="white"/>
<path d="M21.5784 15.9937C19.9767 15.947 18.3128 15.2774 16.9627 13.8955C15.601 12.4999 14.9181 10.8076 14.9461 8.84608C14.9735 6.94498 15.6728 5.31449 17.0017 3.97314C18.1987 2.76573 19.6513 2.0796 21.3405 1.95254C23.5211 1.78976 25.399 2.49649 26.9248 4.07617C28.2373 5.43262 28.886 7.08578 28.8833 8.97658C28.8771 12.8234 25.7982 15.9752 21.5784 15.9937ZM25.9274 9.2774C25.9274 7.83166 25.5323 6.87974 24.7612 6.09471C23.9908 5.30968 23.0303 4.90858 21.9297 4.89965C20.8298 4.89141 19.8687 5.28839 19.0901 6.07479C18.1782 6.99512 17.7762 8.12149 17.9157 9.41682C18.0052 10.3131 18.4024 11.1497 19.0381 11.7822C19.9377 12.6922 21.0288 13.1133 22.3037 12.9965C24.217 12.8207 25.9582 11.1538 25.9274 9.2774Z" fill="white"/>
<path d="M16.0396 15.6575H15.9193C14.9227 15.6575 13.9267 15.6575 12.9307 15.6575C12.8664 15.6672 12.8042 15.628 12.7857 15.5648C12.0023 13.6596 11.2162 11.7551 10.4287 9.85192C10.2271 9.36634 10.0199 8.88145 9.8169 8.3945C9.62891 7.94464 9.44297 7.49546 9.25772 7.0456C8.87354 6.10672 8.48867 5.16716 8.10518 4.2276C8.09219 4.19807 8.07578 4.16991 8.05117 4.12321C7.21172 6.16167 6.3791 8.17678 5.53965 10.2084H5.67363C6.71885 10.2084 7.76338 10.2084 8.80586 10.2084C8.8749 10.1981 8.93984 10.2413 8.9583 10.3093C9.32471 11.1596 9.69385 12.0085 10.065 12.8574C10.0794 12.8904 10.0917 12.9247 10.1115 12.9749H9.9707C8.15713 12.9749 6.34219 12.9742 4.52588 12.9721C4.41924 12.9721 4.38096 13.0113 4.34473 13.0985C4.00772 13.9213 3.66729 14.742 3.33027 15.5635C3.30566 15.6232 3.28447 15.6596 3.20859 15.6596C2.1832 15.6562 1.15713 15.6562 0.131738 15.6596C0.120801 15.6596 0.109863 15.6596 0.0859375 15.6555C0.0941406 15.6239 0.105078 15.593 0.116699 15.5621C1.16943 13.1157 2.22217 10.6692 3.27559 8.2228C4.43633 5.52568 5.59639 2.8265 6.75576 0.125955C6.79336 0.0387301 6.83506 0.00713661 6.93213 0.00782343C7.68408 0.0126311 8.4374 0.0126311 9.19141 0.00782343C9.28984 0.00782343 9.32949 0.0421641 9.36709 0.128016C10.426 2.59574 11.4869 5.06346 12.5492 7.5298C13.6963 10.1967 14.844 12.865 15.9911 15.5339C16.0041 15.5703 16.0191 15.6074 16.0396 15.6575Z" fill="white"/>
<path d="M32.9922 7.44428L32.9949 7.41406L33.0175 7.43467L32.9922 7.44428Z" fill="white"/>
</g>
<defs>
<clipPath id="clip0_2040_1143">
<rect width="42" height="16" fill="white"/>
</clipPath>
</defs>
</svg>
